<?xml version="1.0" standalone="no"?>
<!DOCTYPE svg PUBLIC "-//W3C//DTD SVG 20010904//EN"
 "http://www.w3.org/TR/2001/REC-SVG-20010904/DTD/svg10.dtd">
<svg version="1.0" xmlns="http://www.w3.org/2000/svg"
 width="512.000000pt" height="512.000000pt" viewBox="0 0 512.000000 512.000000"
 preserveAspectRatio="xMidYMid meet">
<metadata>
Created by potrace 1.14, written by Peter Selinger 2001-2017
</metadata>
<g transform="translate(0.000000,512.000000) scale(0.100000,-0.100000)"
fill="#000000" stroke="none">
<path d="M1800 5100 c-168 -31 -284 -70 -410 -138 -321 -171 -566 -473 -665
-817 -48 -170 -53 -229 -54 -700 l-2 -439 -73 -76 c-91 -94 -151 -175 -204
-276 -41 -81 -88 -210 -98 -273 -3 -18 -8 -43 -11 -55 -13 -49 -11 -294 3
-366 79 -420 381 -753 787 -867 95 -26 97 -28 98 -58 0 -16 1 -256 1 -533 l1
-502 1587 0 1586 0 0 674 0 674 59 53 c32 30 72 69 89 88 17 19 39 42 48 52
40 42 128 183 175 279 47 97 95 241 108 322 3 18 10 58 15 88 11 70 12 1650 1
1710 -5 25 -11 61 -14 80 -8 53 -35 147 -64 225 -26 70 -92 206 -104 215 -3 3
-12 16 -19 30 -24 47 -118 165 -182 229 -191 193 -417 313 -693 371 l-130 28
-870 0 c-790 0 -879 -2 -965 -18z m1845 -324 c222 -38 396 -123 552 -269 136
-128 239 -303 289 -492 26 -96 27 -111 28 -375 1 -313 -4 -344 -76 -490 -33
-68 -58 -102 -127 -170 -89 -89 -140 -123 -238 -160 -128 -48 -148 -49 -839
-50 l-652 0 -25 64 c-60 156 -188 293 -332 357 -131 57 -155 59 -610 56 -412
-3 -422 -4 -516 -28 l-96 -25 2 345 c3 366 8 422 57 566 119 346 438 611 805
668 85 14 1702 16 1778 3z m-1564 -1887 c71 -33 125 -89 159 -162 81 -178 -38
-398 -235 -432 -5 -1 -180 -3 -387 -3 l-378 -2 0 -167 0 -168 377 1 c208 1
400 4 427 8 227 32 430 193 511 405 l26 68 637 0 c350 0 669 3 709 7 185 18
382 98 533 217 27 21 51 39 54 39 2 0 3 -96 1 -212 -3 -219 -14 -304 -54 -420
-73 -206 -221 -398 -397 -511 -106 -68 -233 -125 -319 -143 -11 -2 -31 -7 -45
-10 -81 -17 -278 -20 -1302 -19 -1261 2 -1186 -2 -1345 70 -264 121 -438 379
-447 665 -4 108 7 181 41 280 93 272 324 465 611 509 26 4 209 7 407 7 l360
-1 56 -26z m1929 -1876 c1 -94 1 -507 1 -588 l-1 -91 -1250 0 c-1119 0 -1250
2 -1251 16 -1 21 -1 661 0 683 1 16 68 17 1251 17 l1250 0 0 -37z"/>
<path d="M2340 692 l0 -167 418 0 417 0 3 168 2 167 -420 0 -420 0 0 -168z"/>
</g>
</svg>
